<svg version="1.1" id="Layer_1" xmlns="http://www.w3.org/2000/svg" xmlns:xlink="http://www.w3.org/1999/xlink" x="0px" y="0px"
	 width="50" viewBox="0 0 900 900" enable-background="new 0 0 900 900" xml:space="preserve">
<path fill="#000000" opacity="1.000000" stroke="none" 
	d="
M501.000000,901.000000 
	C334.000000,901.000000 167.500000,901.000000 1.000000,901.000000 
	C1.000000,601.000000 1.000000,301.000000 1.000000,1.000000 
	C301.000000,1.000000 601.000000,1.000000 901.000000,1.000000 
	C901.000000,301.000000 901.000000,601.000000 901.000000,901.000000 
	C767.833313,901.000000 634.666687,901.000000 501.000000,901.000000 
M642.525208,798.997192 
	C642.422363,798.683044 642.319580,798.368835 642.055969,797.301208 
	C642.015625,796.534119 641.975281,795.767029 642.273071,794.706177 
	C642.253845,794.143433 642.234619,793.580627 642.223694,792.229736 
	C642.248047,791.179138 642.272461,790.128540 642.622864,788.315125 
	C642.780396,786.330444 643.075684,784.345825 643.075867,782.361145 
	C643.095947,558.844543 643.096436,335.328003 643.060425,111.811424 
	C643.060059,109.518837 642.562805,107.226341 641.986450,104.345093 
	C641.679504,104.028168 641.372559,103.711243 640.554871,103.159851 
	C639.998352,103.173668 639.441833,103.187492 637.962646,103.215530 
	C595.025391,103.218040 552.088135,103.220551 508.719604,103.122665 
	C508.416199,103.101799 508.132568,103.166916 507.142426,103.510902 
	C506.561157,103.963806 505.979889,104.416710 505.220825,105.280258 
	C505.145020,105.581017 505.162567,105.876244 505.342041,106.917015 
	C505.522949,107.642494 505.703857,108.367966 505.651276,109.989616 
	C505.582092,111.319588 505.452698,112.649551 505.452515,113.979530 
	C505.445435,165.300873 505.446014,216.622223 505.471802,267.943573 
	C505.472656,269.596771 505.746765,271.249847 505.587769,273.810394 
	C505.714844,284.208344 505.841949,294.606293 505.728607,305.789093 
	C505.833038,312.846863 505.937469,319.904633 505.778381,327.839081 
	C505.811707,336.184021 505.845032,344.528931 505.561676,353.784393 
	C505.567810,371.104797 505.573944,388.425171 504.989838,405.905762 
	C504.600342,406.029724 504.210876,406.153717 503.461151,406.062897 
	C503.461151,406.062897 503.055176,405.957550 502.927826,405.368164 
	C502.804199,404.985870 502.680573,404.603607 502.615326,403.459198 
	C500.761627,398.629395 498.907959,393.799622 496.925171,388.377808 
	C496.792236,387.996796 496.659332,387.615784 496.574768,386.493408 
	C495.518402,383.897156 494.462036,381.300873 493.226410,378.059418 
	C493.029510,377.419464 492.832642,376.779541 492.736816,375.392548 
	C491.490814,372.269745 490.244812,369.146942 488.894348,365.561127 
	C488.894348,365.561127 488.731384,365.115326 488.824554,364.471252 
	C488.334167,363.554321 487.843781,362.637360 487.244904,361.309235 
	C487.244904,361.309235 487.099823,360.909454 487.191681,360.123688 
	C484.479004,352.739532 481.766296,345.355408 479.016815,337.976257 
	C479.016815,337.976257 479.049042,337.952728 479.135071,337.188904 
	C477.983948,334.335358 476.832825,331.481812 475.481598,327.939697 
	C475.191650,327.028687 474.901703,326.117706 474.715820,324.608032 
	C474.314514,323.947632 473.913208,323.287201 473.349884,321.938873 
	C473.062347,321.041992 472.774811,320.145142 472.560181,318.507568 
	C471.477783,315.917267 470.395386,313.326965 469.224701,310.325592 
	C469.224701,310.325592 469.096161,309.925262 469.177856,309.136414 
	C467.222473,304.008972 465.267090,298.881500 463.162537,293.110596 
	C462.963165,292.481323 462.763794,291.852081 462.684326,290.624390 
	C462.279938,289.962952 461.875519,289.301514 461.311462,287.998688 
	C461.135803,287.361755 460.960144,286.724792 460.845184,285.323151 
	C457.572906,276.550262 454.300629,267.777374 450.927338,258.395782 
	C450.816345,258.000336 450.705353,257.604858 450.622131,256.468170 
	C449.555939,253.873703 448.489746,251.279251 447.244171,248.041092 
	C447.038849,247.405365 446.833527,246.769638 446.752777,245.473602 
	C446.191132,244.302216 445.629486,243.130844 444.973083,241.510910 
	C444.973083,241.510910 444.818115,241.079407 444.913208,240.385132 
	C444.274261,238.939270 443.635315,237.493408 442.897156,235.565460 
	C442.897156,235.565460 442.737244,235.099930 442.827026,234.458679 
	C442.340546,233.540085 441.854034,232.621506 441.266022,231.299088 
	C441.266022,231.299088 441.123749,230.907730 441.214630,230.119827 
	C439.261597,224.980545 437.308533,219.841278 435.254272,214.301682 
	C435.254272,214.301682 435.111267,213.914307 435.189026,213.130051 
	C433.777069,209.440674 432.365112,205.751297 430.836853,201.447830 
	C430.697113,201.056000 430.557404,200.664169 430.508759,199.684830 
	C430.126343,199.028488 429.743958,198.372147 429.180908,197.071075 
	C428.986511,196.430389 428.792084,195.789703 428.698334,194.657410 
	C428.508728,194.397903 428.319092,194.138397 427.905945,193.247940 
	C427.535370,192.195648 427.164795,191.143356 426.888641,189.398026 
	C426.251465,187.951004 425.614288,186.503983 424.791504,184.333069 
	C416.693054,161.599457 408.594604,138.865829 400.581177,115.682503 
	C400.534363,115.345978 400.352264,115.117096 399.891571,114.333427 
	C399.675781,113.938927 399.459991,113.544426 399.355652,112.735794 
	C399.341309,112.423012 399.200256,112.185478 398.870331,111.360619 
	C398.696899,110.955696 398.523438,110.550774 398.423187,109.566208 
	C398.039795,108.922569 397.656403,108.278931 397.247040,107.281746 
	C397.247040,107.281746 397.067322,106.976173 397.159821,106.320885 
	C396.865967,105.755737 396.572113,105.190590 395.961365,104.091606 
	C395.409241,103.842278 394.857117,103.592957 393.507019,103.025208 
	C391.019287,102.955627 388.531586,102.826073 386.043823,102.825424 
	C347.508453,102.815361 308.973114,102.824333 270.437744,102.823532 
	C257.618347,102.823265 257.582001,102.860443 259.367981,117.004341 
	C259.306061,121.170021 259.189972,125.335709 259.190002,129.501389 
	C259.191467,348.166595 259.201660,566.831787 259.221832,785.497009 
	C259.222168,789.326660 259.354828,793.156372 259.294098,797.705322 
	C261.307037,801.715698 264.294189,799.177185 267.751556,798.874146 
	C268.801788,798.720459 269.852020,798.566772 271.627258,798.626404 
	C273.056793,798.340088 274.486328,798.053711 276.650055,797.796021 
	C278.095459,797.559998 279.540894,797.324036 281.375031,797.261841 
	C281.906494,797.143555 282.437958,797.025269 283.815979,796.935608 
	C285.216919,796.780945 286.617889,796.626282 288.774261,796.643616 
	C290.473541,796.316956 292.172852,795.990356 294.609467,795.697998 
	C296.067810,795.497375 297.526154,795.296692 299.467072,795.281921 
	C300.304871,795.143005 301.142670,795.004089 302.812073,794.903931 
	C303.905273,794.743896 304.998474,794.583801 306.852264,794.673828 
	C308.871155,794.376709 310.890076,794.079651 313.719788,793.791870 
	C314.782532,793.617981 315.845306,793.444092 317.654297,793.469727 
	C319.427399,793.265381 321.200500,793.061035 323.798737,792.911011 
	C325.165924,792.768127 326.533142,792.625305 328.668335,792.674866 
	C330.419098,792.390747 332.169861,792.106567 334.734558,791.896667 
	C335.803314,791.727844 336.872101,791.558960 338.789032,791.653381 
	C341.844696,791.390808 344.900391,791.128235 348.809357,790.930542 
	C350.507507,790.784607 352.205658,790.638672 354.771790,790.722229 
	C357.814331,790.394348 360.856903,790.066406 364.717224,789.819092 
	C367.129425,789.619019 369.541626,789.418945 372.670135,789.482239 
	C375.429626,789.269287 378.189087,789.056335 381.830414,788.917358 
	C383.879089,788.776794 385.927765,788.636230 388.807739,788.726929 
	C390.236023,788.632385 391.664337,788.537842 393.582031,788.611450 
	C394.209167,788.053894 394.836304,787.496338 395.646240,786.189453 
	C395.550598,785.432678 395.454987,784.675964 395.574066,783.108887 
	C395.628967,781.946472 395.731995,780.784119 395.731873,779.621704 
	C395.725250,713.920776 395.712769,648.219788 395.678131,582.518860 
	C395.677368,581.034424 395.415527,579.550110 395.580505,577.183594 
	C395.557343,573.788269 395.534149,570.393005 395.745575,566.090881 
	C395.770996,544.594116 395.754333,523.097107 395.876953,501.600891 
	C395.891663,499.020660 396.661987,496.444702 397.224976,494.336945 
	C397.224976,494.336945 397.434631,494.781372 397.353882,495.366058 
	C397.735687,496.017853 398.117523,496.669647 398.701050,498.031311 
	C399.017426,498.961151 399.333801,499.891022 399.571503,501.235474 
	C399.624298,501.547394 399.802490,501.747711 400.309387,502.511261 
	C400.684845,503.624420 401.060272,504.737610 401.339539,506.331940 
	C401.387848,506.690002 401.577789,506.940826 402.117767,507.725647 
	C402.481476,508.789093 402.845184,509.852509 403.098328,511.507935 
	C403.393646,512.004517 403.688995,512.501038 404.147675,513.530579 
	C404.247650,513.888123 404.347626,514.245728 404.308960,515.357422 
	C405.127441,517.267822 405.945923,519.178284 406.973877,521.640503 
	C407.041443,522.027527 407.109009,522.414551 407.088867,523.580750 
	C408.263672,526.435852 409.438477,529.291016 410.862030,532.681946 
	C410.956848,533.063354 411.051666,533.444702 411.028229,534.507141 
	C411.603058,535.691345 412.177856,536.875488 412.962860,538.608276 
	C413.044434,538.990723 413.126007,539.373108 413.109680,540.544312 
	C414.375916,543.702026 415.642151,546.859680 417.065399,550.433350 
	C417.065399,550.433350 417.122925,550.874146 417.038086,551.660461 
	C418.927917,556.477295 420.817780,561.294189 422.923523,566.664001 
	C422.999756,567.051697 423.075989,567.439453 423.030090,568.461609 
	C423.499695,569.365051 423.969330,570.268494 424.742737,571.778503 
	C424.908234,572.435242 425.073761,573.091980 425.143066,574.540283 
	C426.314697,577.405212 427.486359,580.270142 428.889587,583.680603 
	C428.971100,584.066467 429.052643,584.452332 429.044525,585.630188 
	C433.176636,597.730225 437.230804,609.857849 441.486084,621.914368 
	C442.845276,625.765442 444.737671,629.428345 446.686066,633.798645 
	C446.846497,634.468445 447.006897,635.138184 447.047882,636.488403 
	C447.622589,637.676697 448.197296,638.865051 448.932068,640.511658 
	C448.932068,640.511658 449.020386,640.989014 448.915222,641.698914 
	C449.577057,643.138428 450.238861,644.577881 451.055084,646.436218 
	C451.055084,646.436218 451.112671,646.878845 451.002197,647.497498 
	C451.451538,648.384338 451.900879,649.271179 452.678131,650.780701 
	C452.840149,651.463196 453.002197,652.145752 453.067230,653.604309 
	C454.261780,656.446777 455.456299,659.289246 456.879730,662.684875 
	C456.961548,663.074768 457.043365,663.464600 456.996582,664.548645 
	C457.576843,665.732178 458.157104,666.915710 458.943024,668.647339 
	C459.025574,669.028259 459.108124,669.409241 459.102264,670.584473 
	C462.367645,679.394287 465.633026,688.204163 469.065338,697.421509 
	C469.065338,697.421509 469.130310,697.857056 469.047302,698.646240 
	C471.613037,705.452148 474.178772,712.258118 476.954590,719.613831 
	C477.036621,719.997009 477.118652,720.380127 477.105499,721.452759 
	C477.682556,722.647583 478.259613,723.842407 479.043060,725.567627 
	C479.121399,725.938354 479.199738,726.309082 479.175720,727.338196 
	C479.673828,728.264771 480.171967,729.191345 480.898163,730.680908 
	C480.976196,731.077515 481.054199,731.474060 481.045349,732.656921 
	C482.934814,737.471985 484.824280,742.287109 486.929230,747.661194 
	C487.003387,748.053162 487.077545,748.445129 487.073822,749.628784 
	C488.948395,754.457703 490.822968,759.286560 492.924377,764.649963 
	C493.012634,765.026123 493.100891,765.402344 493.080597,766.575439 
	C495.543671,773.110291 498.006714,779.645203 500.770844,786.663940 
	C500.924896,787.010925 501.078979,787.357849 501.645874,788.341370 
	C507.757874,788.616455 513.869873,788.891541 520.884216,789.096375 
	C523.877930,789.246094 526.871643,789.395752 530.406189,790.033813 
	C537.932861,790.384644 545.459534,790.735535 553.830261,791.060730 
	C555.508972,791.203674 557.187622,791.346619 559.398376,791.993652 
	C565.258423,792.321472 571.118530,792.649231 577.823608,792.967590 
	C579.502319,793.126160 581.181091,793.284790 583.365234,793.969055 
	C588.570251,794.338562 593.775330,794.708008 599.721863,795.042664 
	C600.457825,795.129089 601.193726,795.215515 602.478394,795.792542 
	C606.989380,796.165710 611.500366,796.538879 616.874512,796.921509 
	C618.869568,797.145386 620.864624,797.369202 623.078064,797.956482 
	C623.714966,797.933411 624.351807,797.910400 625.740723,797.944458 
	C626.480347,798.086487 627.219910,798.228516 628.534302,798.763245 
	C629.444031,798.771667 630.353760,798.780029 632.110901,798.780640 
	C634.359070,799.039673 636.607239,799.298706 639.164307,799.978821 
	C640.240417,799.762878 641.316589,799.546936 642.525208,798.997192 
z"/>
<path fill="#E40913" opacity="1.000000" stroke="none" 
	d="
M459.190643,669.790161 
	C459.108124,669.409241 459.025574,669.028259 458.887115,668.038208 
	C458.262512,666.237549 457.693848,665.046021 457.125183,663.854492 
	C457.043365,663.464600 456.961548,663.074768 456.787842,662.037964 
	C455.518707,658.536804 454.341431,655.682556 453.164185,652.828247 
	C453.002197,652.145752 452.840149,651.463196 452.561951,650.167236 
	C452.001373,648.662109 451.557037,647.770508 451.112671,646.878845 
	C451.112671,646.878845 451.055084,646.436218 451.017303,645.879761 
	C450.326477,643.878601 449.673431,642.433777 449.020386,640.989014 
	C449.020386,640.989014 448.932068,640.511658 448.908386,639.947388 
	C448.312256,638.191406 447.739777,636.999695 447.167297,635.807983 
	C447.006897,635.138184 446.846497,634.468445 446.555237,633.122498 
	C444.606934,627.109070 442.891571,621.734314 440.950409,616.442444 
	C437.077209,605.883606 433.080078,595.370300 429.134155,584.838196 
	C429.052643,584.452332 428.971100,584.066467 428.817841,583.035034 
	C427.577148,579.509277 426.408203,576.628967 425.239258,573.748718 
	C425.073761,573.091980 424.908234,572.435242 424.622284,571.164917 
	C424.051971,569.643250 423.602081,568.735229 423.152222,567.827148 
	C423.075989,567.439453 422.999756,567.051697 422.829773,566.009766 
	C420.864960,560.528381 418.993927,555.701294 417.122925,550.874146 
	C417.122925,550.874146 417.065399,550.433350 417.023621,549.840759 
	C415.723724,546.083984 414.465668,542.919739 413.207611,539.755554 
	C413.126007,539.373108 413.044434,538.990723 412.905334,538.000366 
	C412.280701,536.203735 411.713623,535.014893 411.146484,533.826111 
	C411.051666,533.444702 410.956848,533.063354 410.772339,532.042847 
	C409.513977,528.536377 408.345276,525.668945 407.176575,522.801575 
	C407.109009,522.414551 407.041443,522.027527 406.896393,521.010803 
	C406.028473,518.455139 405.238037,516.529236 404.447601,514.603271 
	C404.347626,514.245728 404.247650,513.888123 404.099976,512.970581 
	C403.771118,511.912323 403.489990,511.414154 403.208862,510.915955 
	C402.845184,509.852509 402.481476,508.789093 402.039185,507.168457 
	C401.909546,506.272247 401.734558,506.018738 401.435699,505.850769 
	C401.060272,504.737610 400.684845,503.624420 400.236176,501.969635 
	C400.108002,501.127716 399.937103,500.925323 399.650208,500.820862 
	C399.333801,499.891022 399.017426,498.961151 398.659485,497.382629 
	C398.223480,496.083069 397.829041,495.432220 397.434631,494.781372 
	C397.434631,494.781372 397.224976,494.336945 397.195587,493.720673 
	C397.118744,492.775299 397.125854,492.426727 397.016174,492.119904 
	C384.632904,457.482513 372.161865,422.876282 359.867340,388.207458 
	C339.726410,331.412933 319.731415,274.566650 299.605255,217.766891 
	C293.839447,201.494720 287.833923,185.307480 281.918915,168.692932 
	C277.510071,155.751678 273.134155,143.193970 268.696442,130.658157 
	C268.439117,129.931183 267.680359,129.381699 267.141296,128.429077 
	C266.916565,127.070343 266.705475,126.032166 266.398438,124.698593 
	C266.231903,124.208542 266.161285,124.013885 266.044769,123.447617 
	C264.419464,118.986000 262.840088,114.895988 261.201904,110.458023 
	C261.050934,109.408676 260.958801,108.707291 260.901276,107.628212 
	C260.968658,106.253006 261.001434,105.255486 261.498108,104.205063 
	C303.270538,104.105263 344.579163,104.071175 385.887634,103.983200 
	C388.693848,103.977226 391.499237,103.566254 394.304993,103.343636 
	C394.857117,103.592957 395.409241,103.842278 396.114960,104.678337 
	C396.534821,105.835434 396.801086,106.405800 397.067322,106.976166 
	C397.067322,106.976173 397.247040,107.281746 397.233612,107.747078 
	C397.596771,108.856888 397.973389,109.501366 398.349976,110.145844 
	C398.523438,110.550774 398.696899,110.955696 398.812622,111.806549 
	C398.918030,112.551620 399.081116,112.850761 399.244202,113.149918 
	C399.459991,113.544426 399.675781,113.938927 399.875488,114.792122 
	C400.071686,115.544617 400.283905,115.838417 400.496155,116.132217 
	C408.594604,138.865829 416.693054,161.599457 424.825989,185.044617 
	C425.505035,187.201141 426.149628,188.646103 426.794189,190.091064 
	C427.164795,191.143356 427.535370,192.195648 427.987183,193.805725 
	C428.116730,194.711700 428.293152,194.973541 428.597687,195.149017 
	C428.792084,195.789703 428.986511,196.430389 429.219299,197.686966 
	C429.644318,198.959351 430.030975,199.615845 430.417664,200.272339 
	C430.557404,200.664169 430.697113,201.056000 430.848755,202.146881 
	C432.277527,206.535400 433.694397,210.224854 435.111267,213.914307 
	C435.111267,213.914307 435.254272,214.301682 435.280609,214.890442 
	C437.245880,220.622025 439.184814,225.764877 441.123749,230.907730 
	C441.123749,230.907730 441.266022,231.299088 441.265869,231.821716 
	C441.756226,233.262878 442.246735,234.181412 442.737244,235.099945 
	C442.737244,235.099930 442.897156,235.565460 442.887878,236.155762 
	C443.525085,238.190506 444.171600,239.634964 444.818115,241.079407 
	C444.818115,241.079407 444.973083,241.510910 444.960266,242.067383 
	C445.507690,243.793869 446.067932,244.963882 446.628204,246.133911 
	C446.833527,246.769638 447.038849,247.405365 447.289124,248.738739 
	C448.420837,252.027390 449.507629,254.618393 450.594391,257.209412 
	C450.705353,257.604858 450.816345,258.000336 450.933289,259.086243 
	C454.220978,268.547119 457.502716,277.317474 460.784485,286.087860 
	C460.960144,286.724792 461.135803,287.361755 461.357788,288.616394 
	C461.790863,289.897034 462.177643,290.559937 462.564392,291.222839 
	C462.763794,291.852081 462.963165,292.481323 463.197876,293.818085 
	C465.187561,299.658813 467.141846,304.792023 469.096161,309.925262 
	C469.096161,309.925262 469.224701,310.325592 469.235291,310.906311 
	C470.326355,314.074127 471.406799,316.661194 472.487244,319.248260 
	C472.774811,320.145142 473.062347,321.041992 473.377502,322.581360 
	C473.807312,323.884796 474.209534,324.545746 474.611755,325.206696 
	C474.901703,326.117706 475.191650,327.028687 475.524841,328.649719 
	C476.728394,332.224060 477.888702,335.088409 479.049042,337.952728 
	C479.049042,337.952728 479.016815,337.976257 478.988556,338.362183 
	C481.673462,346.135254 484.386627,353.522339 487.099823,360.909454 
	C487.099823,360.909454 487.244904,361.309235 487.255981,361.834076 
	C487.755157,363.277710 488.243286,364.196503 488.731384,365.115326 
	C488.731384,365.115326 488.894348,365.561127 488.893311,366.179871 
	C490.140106,369.912262 491.387909,373.025940 492.635742,376.139587 
	C492.832642,376.779541 493.029510,377.419464 493.277710,378.756409 
	C494.394806,382.047211 495.460602,384.640991 496.526367,387.234772 
	C496.659332,387.615784 496.792236,387.996796 496.947754,389.062134 
	C498.832550,394.571442 500.694763,399.396362 502.556976,404.221313 
	C502.680573,404.603607 502.804199,404.985870 502.934937,406.006836 
	C503.352722,407.699799 503.763367,408.754089 504.172607,409.831299 
	C504.171204,409.854156 504.212036,409.875122 504.254059,410.237946 
	C505.337524,413.231506 506.464264,415.832031 507.407928,418.497375 
	C534.042847,493.727844 560.628418,568.975830 587.293274,644.195679 
	C598.751953,676.519958 610.369141,708.788086 621.979004,741.456482 
	C627.076782,756.203735 632.109863,770.576233 637.187134,785.270996 
	C637.799194,786.738403 638.367065,787.883545 639.006836,789.365356 
	C639.712463,791.143433 640.346069,792.584961 641.098389,794.228638 
	C641.374634,794.723572 641.613953,794.913330 641.934937,794.999939 
	C641.975281,795.767029 642.015625,796.534119 642.005005,797.620850 
	C641.953979,797.940491 641.698792,798.070679 641.552979,798.181946 
	C641.238342,798.480530 641.131226,798.698181 640.707886,799.030273 
	C639.838501,799.262207 639.346924,799.409973 638.855408,799.557739 
	C636.607239,799.298706 634.359070,799.039673 631.645874,798.581177 
	C631.180786,798.381714 630.968140,798.025208 630.800964,797.889465 
	C630.087830,797.762146 629.541870,797.770569 628.717163,797.892456 
	C628.278809,798.127563 628.119141,798.249084 627.959534,798.370544 
	C627.219910,798.228516 626.480347,798.086487 625.143677,797.722656 
	C623.984253,797.531616 623.421997,797.562317 622.859680,797.593018 
	C620.864624,797.369202 618.869568,797.145386 616.143555,796.739868 
	C614.272217,796.333801 613.131775,796.109436 611.674438,795.719238 
	C610.178284,795.449829 608.998962,795.346130 607.397095,795.246277 
	C605.292908,795.267395 603.611267,795.284729 601.929688,795.302002 
	C601.193726,795.215515 600.457825,795.129089 599.000366,794.877808 
	C593.139221,794.289856 587.999512,793.866638 582.859802,793.443420 
	C581.181091,793.284790 579.502319,793.126160 577.046570,792.803955 
	C570.468445,792.256775 564.667419,791.873169 558.866333,791.489624 
	C557.187622,791.346619 555.508972,791.203674 553.039124,790.907837 
	C544.787109,790.351746 537.326233,789.948608 529.865356,789.545410 
	C526.871643,789.395752 523.877930,789.246094 520.063599,788.957764 
	C513.239685,788.447754 507.236389,788.076294 501.233063,787.704834 
	C501.078979,787.357849 500.924896,787.010925 500.647430,786.046326 
	C498.079041,778.878662 495.634094,772.328552 493.189117,765.778503 
	C493.100891,765.402344 493.012634,765.026123 492.844055,764.003052 
	C490.893066,758.516479 489.022369,753.676758 487.151703,748.837097 
	C487.077545,748.445129 487.003387,748.053162 486.840454,747.004517 
	C484.878540,741.522156 483.005371,736.696411 481.132202,731.870667 
	C481.054199,731.474060 480.976196,731.077515 480.826294,730.075317 
	C480.262329,728.539795 479.770203,727.609802 479.278046,726.679810 
	C479.199738,726.309082 479.121399,725.938354 478.982849,724.963135 
	C478.348663,723.160217 477.774658,721.961792 477.200684,720.763306 
	C477.118652,720.380127 477.036621,719.997009 476.886108,718.961365 
	C474.255157,711.491638 471.692719,704.674316 469.130310,697.857056 
	C469.130310,697.857056 469.065338,697.421509 469.020325,696.832031 
	C465.713776,687.425049 462.452209,678.607605 459.190643,669.790161 
z"/>
<path fill="#AF060F" opacity="1.000000" stroke="none" 
	d="
M266.494415,124.993988 
	C266.705475,126.032166 266.916565,127.070343 267.014099,128.759140 
	C267.038910,131.045456 266.950714,132.738831 267.350403,134.307953 
	C271.647583,151.179016 276.051361,168.022888 280.365845,184.889572 
	C284.069763,199.369415 287.657501,213.878967 291.365082,228.357834 
	C296.883270,249.907379 302.275116,271.491821 308.066010,292.968292 
	C314.078003,315.264771 320.666321,337.405853 326.681030,359.701599 
	C330.184326,372.687775 332.626923,385.966705 336.314209,398.894989 
	C341.771606,418.029633 344.409912,437.885986 351.952667,456.515869 
	C355.538940,465.373596 356.903656,475.104034 359.824432,484.263824 
	C365.113922,500.852112 370.657593,517.364075 376.394440,533.803467 
	C380.995850,546.989197 385.948853,560.055664 390.987732,573.081482 
	C391.732819,575.007568 393.812988,576.417175 395.275513,578.065735 
	C395.415527,579.550110 395.677368,581.034424 395.678131,582.518860 
	C395.712769,648.219788 395.725250,713.920776 395.731873,779.621704 
	C395.731995,780.784119 395.628967,781.946472 395.174652,783.728882 
	C392.508972,785.731140 390.242706,787.113403 387.976440,788.495667 
	C385.927765,788.636230 383.879089,788.776794 381.041534,788.720581 
	C377.486389,788.755432 374.720093,788.987122 371.953827,789.218811 
	C369.541626,789.418945 367.129425,789.619019 363.960510,789.620972 
	C360.103790,789.779541 357.003784,790.136169 353.903809,790.492798 
	C352.205658,790.638672 350.507507,790.784607 348.030487,790.737671 
	C344.148041,790.826599 341.044434,791.108337 337.940857,791.390015 
	C336.872101,791.558960 335.803314,791.727844 334.031250,791.703247 
	C331.518707,791.834045 329.709534,792.158203 327.900330,792.482422 
	C326.533142,792.625305 325.165924,792.768127 323.085083,792.739380 
	C320.550293,792.801880 318.729156,793.036072 316.908051,793.270203 
	C315.845306,793.444092 314.782532,793.617981 313.019318,793.640015 
	C310.243134,793.799927 308.167389,794.111816 306.091675,794.423706 
	C304.998474,794.583801 303.905273,794.743896 302.155762,794.764832 
	C300.661133,794.782532 299.822815,794.939270 298.984497,795.096069 
	C297.526154,795.296692 296.067810,795.497375 293.954712,795.543213 
	C291.539581,795.749512 289.779205,796.110596 288.018829,796.471680 
	C286.617889,796.626282 285.216919,796.780945 283.200806,796.817993 
	C282.052490,796.829590 281.519409,796.958801 280.986298,797.088013 
	C279.540894,797.324036 278.095459,797.559998 276.006989,797.637207 
	C273.876709,797.789978 272.389496,798.101562 270.902252,798.413086 
	C269.852020,798.566772 268.801788,798.720459 267.029785,798.703613 
	C264.013916,798.017334 261.719818,797.501709 259.425751,796.986023 
	C259.354828,793.156372 259.222168,789.326660 259.221832,785.497009 
	C259.201660,566.831787 259.191467,348.166595 259.190002,129.501389 
	C259.189972,125.335709 259.306061,121.170021 259.674377,116.305634 
	C260.407440,114.006615 260.834076,112.406296 261.260712,110.805977 
	C262.840088,114.895988 264.419464,118.986000 266.028534,123.613892 
	C266.076965,124.494667 266.222382,124.775414 266.494415,124.993988 
z"/>
<path fill="#B0060F" opacity="1.000000" stroke="none" 
	d="
M506.041901,326.962402 
	C505.937469,319.904633 505.833038,312.846863 506.155762,305.171356 
	C507.009308,303.682617 507.795959,302.815857 507.806213,301.940002 
	C507.907013,293.329346 507.948578,284.715942 507.798828,276.106964 
	C507.780060,275.028259 506.558014,273.970490 505.893494,272.902985 
	C505.746765,271.249847 505.472656,269.596771 505.471802,267.943573 
	C505.446014,216.622223 505.445435,165.300873 505.452515,113.979530 
	C505.452698,112.649551 505.582092,111.319588 506.042145,109.401268 
	C508.541016,105.423439 511.703308,104.939560 515.443359,104.949570 
	C553.606689,105.051720 591.770386,105.011597 629.934021,105.013039 
	C640.012939,105.013428 640.016541,105.016251 640.016541,115.165558 
	C640.016602,321.982330 640.015808,528.799133 640.014954,735.615906 
	C640.014893,749.104980 640.031738,762.594177 639.988770,776.083130 
	C639.983032,777.896423 639.670044,779.708801 639.499329,781.521606 
	C638.986755,781.545227 638.474121,781.568909 637.961548,781.592529 
	C636.675110,776.345947 635.473328,771.076782 634.085022,765.857300 
	C631.022217,754.342773 627.603638,742.916321 624.811035,731.338013 
	C621.026001,715.645081 617.934998,699.783752 614.092468,684.105957 
	C610.496399,669.433289 606.318420,654.903015 602.376343,640.315552 
	C600.726257,634.209351 598.939575,628.138977 597.363831,622.013977 
	C594.226257,609.817810 591.250732,597.579773 588.098694,585.387390 
	C584.485779,571.412048 580.618286,557.501282 577.115051,543.499084 
	C574.140137,531.608765 571.767395,519.565735 568.695801,507.702271 
	C564.074768,489.853790 559.212952,472.064240 554.178101,454.327789 
	C551.828491,446.050659 548.818787,437.961548 546.136841,429.777832 
	C544.740540,425.516998 543.304749,421.265015 542.064331,416.957947 
	C539.216431,407.069183 536.791321,397.046143 533.588989,387.276123 
	C531.267029,380.192169 527.594360,373.555481 525.195007,366.491425 
	C520.554016,352.827576 516.443115,338.984375 511.951508,325.268219 
	C511.388885,323.550049 509.852570,322.150757 508.076172,319.618195 
	C507.092865,323.168213 506.567383,325.065308 506.041901,326.962402 
z"/>
<path fill="#9D0610" opacity="1.000000" stroke="none" 
	d="
M505.910156,327.400757 
	C506.567383,325.065308 507.092865,323.168213 508.076172,319.618195 
	C509.852570,322.150757 511.388885,323.550049 511.951508,325.268219 
	C516.443115,338.984375 520.554016,352.827576 525.195007,366.491425 
	C527.594360,373.555481 531.267029,380.192169 533.588989,387.276123 
	C536.791321,397.046143 539.216431,407.069183 542.064331,416.957947 
	C543.304749,421.265015 544.740540,425.516998 546.136841,429.777832 
	C548.818787,437.961548 551.828491,446.050659 554.178101,454.327789 
	C559.212952,472.064240 564.074768,489.853790 568.695801,507.702271 
	C571.767395,519.565735 574.140137,531.608765 577.115051,543.499084 
	C580.618286,557.501282 584.485779,571.412048 588.098694,585.387390 
	C591.250732,597.579773 594.226257,609.817810 597.363831,622.013977 
	C598.939575,628.138977 600.726257,634.209351 602.376343,640.315552 
	C606.318420,654.903015 610.496399,669.433289 614.092468,684.105957 
	C617.934998,699.783752 621.026001,715.645081 624.811035,731.338013 
	C627.603638,742.916321 631.022217,754.342773 634.085022,765.857300 
	C635.473328,771.076782 636.675110,776.345947 637.961548,781.592529 
	C638.474121,781.568909 638.986755,781.545227 639.499329,781.521606 
	C639.670044,779.708801 639.983032,777.896423 639.988770,776.083130 
	C640.031738,762.594177 640.014893,749.104980 640.014954,735.615906 
	C640.015808,528.799133 640.016602,321.982330 640.016541,115.165558 
	C640.016541,105.016251 640.012939,105.013428 629.934021,105.013039 
	C591.770386,105.011597 553.606689,105.051720 515.443359,104.949570 
	C511.703308,104.939560 508.541016,105.423439 506.158905,108.953178 
	C505.703857,108.367966 505.522949,107.642494 505.404297,106.337059 
	C505.549835,105.453171 505.527191,105.157341 505.398621,104.869621 
	C505.979889,104.416710 506.561157,103.963806 507.720459,103.476501 
	C508.608154,103.468407 508.892273,103.395393 509.150909,103.223068 
	C552.088135,103.220551 595.025391,103.218040 638.681152,103.328629 
	C639.954956,103.425926 640.510254,103.410126 641.065613,103.394318 
	C641.372559,103.711243 641.679504,104.028168 642.051941,105.104836 
	C642.061096,107.861832 641.955566,109.859077 641.955444,111.856331 
	C641.945435,335.607330 641.942322,559.358337 641.955383,783.109375 
	C641.955505,785.098877 642.178101,787.088440 642.296814,789.077942 
	C642.272461,790.128540 642.248047,791.179138 642.009277,792.786987 
	C641.523132,793.571655 641.251404,793.799072 640.979736,794.026489 
	C640.346069,792.584961 639.712463,791.143433 639.155090,789.088257 
	C638.535278,787.299255 637.839111,786.123962 637.142944,784.948730 
	C632.109863,770.576233 627.076782,756.203735 622.225037,741.265747 
	C621.739868,735.588623 621.712830,730.289490 620.280090,725.402527 
	C616.780151,713.464172 612.360352,701.796570 608.811646,689.871033 
	C604.650269,675.886780 601.165894,661.702332 597.112732,647.684265 
	C593.647766,635.700378 589.678101,623.862915 586.161499,611.893250 
	C584.430237,606.000366 583.470886,599.879700 581.719116,593.994019 
	C578.116943,581.891235 574.093750,569.913879 570.472534,557.816467 
	C566.657227,545.070862 563.316345,532.181213 559.388550,519.471863 
	C554.921570,505.017853 550.143555,490.656860 545.305481,476.321350 
	C536.900513,451.417267 528.335632,426.567139 519.859802,401.686859 
	C517.554382,394.919281 516.405029,387.472778 512.793945,381.506805 
	C508.225311,373.958893 507.777374,366.297577 507.860901,358.107910 
	C507.878632,356.370178 506.573822,354.618896 505.878326,352.873871 
	C505.845032,344.528931 505.811707,336.184021 505.910156,327.400757 
z"/>
<path fill="#85020C" opacity="1.000000" stroke="none" 
	d="
M505.720001,353.329132 
	C506.573822,354.618896 507.878632,356.370178 507.860901,358.107910 
	C507.777374,366.297577 508.225311,373.958893 512.793945,381.506805 
	C516.405029,387.472778 517.554382,394.919281 519.859802,401.686859 
	C528.335632,426.567139 536.900513,451.417267 545.305481,476.321350 
	C550.143555,490.656860 554.921570,505.017853 559.388550,519.471863 
	C563.316345,532.181213 566.657227,545.070862 570.472534,557.816467 
	C574.093750,569.913879 578.116943,581.891235 581.719116,593.994019 
	C583.470886,599.879700 584.430237,606.000366 586.161499,611.893250 
	C589.678101,623.862915 593.647766,635.700378 597.112732,647.684265 
	C601.165894,661.702332 604.650269,675.886780 608.811646,689.871033 
	C612.360352,701.796570 616.780151,713.464172 620.280090,725.402527 
	C621.712830,730.289490 621.739868,735.588623 622.160278,740.890991 
	C610.369141,708.788086 598.751953,676.519958 587.293274,644.195679 
	C560.628418,568.975830 534.042847,493.727844 507.407928,418.497375 
	C506.464264,415.832031 505.337524,413.231506 504.550476,410.184753 
	C505.063293,408.427673 505.321686,407.086639 505.580078,405.745575 
	C505.573944,388.425171 505.567810,371.104797 505.720001,353.329132 
z"/>
<path fill="#9D040E" opacity="1.000000" stroke="none" 
	d="
M395.428009,577.624634 
	C393.812988,576.417175 391.732819,575.007568 390.987732,573.081482 
	C385.948853,560.055664 380.995850,546.989197 376.394440,533.803467 
	C370.657593,517.364075 365.113922,500.852112 359.824432,484.263824 
	C356.903656,475.104034 355.538940,465.373596 351.952667,456.515869 
	C344.409912,437.885986 341.771606,418.029633 336.314209,398.894989 
	C332.626923,385.966705 330.184326,372.687775 326.681030,359.701599 
	C320.666321,337.405853 314.078003,315.264771 308.066010,292.968292 
	C302.275116,271.491821 296.883270,249.907379 291.365082,228.357834 
	C287.657501,213.878967 284.069763,199.369415 280.365845,184.889572 
	C276.051361,168.022888 271.647583,151.179016 267.350403,134.307953 
	C266.950714,132.738831 267.038910,131.045456 267.027771,129.079681 
	C267.680359,129.381699 268.439117,129.931183 268.696442,130.658157 
	C273.134155,143.193970 277.510071,155.751678 281.763062,169.042633 
	C282.363922,174.257294 282.933777,178.771149 283.917267,183.193039 
	C284.336914,185.080032 285.938385,186.686996 286.459320,188.571457 
	C289.993561,201.356537 293.245514,214.220413 296.847626,226.985779 
	C303.885010,251.925171 311.020569,276.837494 318.257111,301.719818 
	C322.146210,315.092316 326.286896,328.392365 330.388672,341.702118 
	C337.540833,364.910004 344.586182,388.152710 351.973541,411.285858 
	C364.117035,449.312561 376.280151,487.334351 391.359375,524.350403 
	C393.119934,528.672180 393.619293,533.671448 393.881470,538.402222 
	C394.295654,545.876282 393.910706,553.391357 394.094055,560.883484 
	C394.144196,562.931885 395.016113,564.960144 395.510956,566.997681 
	C395.534149,570.393005 395.557343,573.788269 395.428009,577.624634 
z"/>
<path fill="#86030D" opacity="1.000000" stroke="none" 
	d="
M395.628265,566.544312 
	C395.016113,564.960144 394.144196,562.931885 394.094055,560.883484 
	C393.910706,553.391357 394.295654,545.876282 393.881470,538.402222 
	C393.619293,533.671448 393.119934,528.672180 391.359375,524.350403 
	C376.280151,487.334351 364.117035,449.312561 351.973541,411.285858 
	C344.586182,388.152710 337.540833,364.910004 330.388672,341.702118 
	C326.286896,328.392365 322.146210,315.092316 318.257111,301.719818 
	C311.020569,276.837494 303.885010,251.925171 296.847626,226.985779 
	C293.245514,214.220413 289.993561,201.356537 286.459320,188.571457 
	C285.938385,186.686996 284.336914,185.080032 283.917267,183.193039 
	C282.933777,178.771149 282.363922,174.257294 281.782471,169.430984 
	C287.833923,185.307480 293.839447,201.494720 299.605255,217.766891 
	C319.731415,274.566650 339.726410,331.412933 359.867340,388.207458 
	C372.161865,422.876282 384.632904,457.482513 397.016174,492.119904 
	C397.125854,492.426727 397.118744,492.775299 397.124146,493.485596 
	C396.661987,496.444702 395.891663,499.020660 395.876953,501.600891 
	C395.754333,523.097107 395.770996,544.594116 395.628265,566.544312 
z"/>
<path fill="#4A0102" opacity="1.000000" stroke="none" 
	d="
M642.459839,788.696533 
	C642.178101,787.088440 641.955505,785.098877 641.955383,783.109375 
	C641.942322,559.358337 641.945435,335.607330 641.955444,111.856331 
	C641.955566,109.859077 642.061096,107.861832 642.207458,105.399193 
	C642.562805,107.226341 643.060059,109.518837 643.060425,111.811424 
	C643.096436,335.328003 643.095947,558.844543 643.075867,782.361145 
	C643.075684,784.345825 642.780396,786.330444 642.459839,788.696533 
z"/>
<path fill="#86030D" opacity="1.000000" stroke="none" 
	d="
M261.201904,110.458023 
	C260.834076,112.406296 260.407440,114.006615 259.741272,115.847282 
	C257.582001,102.860443 257.618347,102.823265 270.437744,102.823532 
	C308.973114,102.824333 347.508453,102.815361 386.043823,102.825424 
	C388.531586,102.826073 391.019287,102.955627 393.906006,103.184418 
	C391.499237,103.566254 388.693848,103.977226 385.887634,103.983200 
	C344.579163,104.071175 303.270538,104.105263 261.304749,104.407196 
	C260.720551,105.776794 260.793610,106.891342 260.866669,108.005898 
	C260.958801,108.707291 261.050934,109.408676 261.201904,110.458023 
z"/>
<path fill="#9D0610" opacity="1.000000" stroke="none" 
	d="
M505.740631,273.356689 
	C506.558014,273.970490 507.780060,275.028259 507.798828,276.106964 
	C507.948578,284.715942 507.907013,293.329346 507.806213,301.940002 
	C507.795959,302.815857 507.009308,303.682617 506.275970,304.778931 
	C505.841949,294.606293 505.714844,284.208344 505.740631,273.356689 
z"/>
<path fill="#4A0102" opacity="1.000000" stroke="none" 
	d="
M429.089355,585.234192 
	C433.080078,595.370300 437.077209,605.883606 440.950409,616.442444 
	C442.891571,621.734314 444.606934,627.109070 446.405243,632.811829 
	C444.737671,629.428345 442.845276,625.765442 441.486084,621.914368 
	C437.230804,609.857849 433.176636,597.730225 429.089355,585.234192 
z"/>
<path fill="#85020C" opacity="1.000000" stroke="none" 
	d="
M460.814819,285.705505 
	C457.502716,277.317474 454.220978,268.547119 450.983795,259.390625 
	C454.300629,267.777374 457.572906,276.550262 460.814819,285.705505 
z"/>
<path fill="#4A0102" opacity="1.000000" stroke="none" 
	d="
M459.146454,670.187317 
	C462.452209,678.607605 465.713776,687.425049 468.936859,696.628235 
	C465.633026,688.204163 462.367645,679.394287 459.146454,670.187317 
z"/>
<path fill="#4A0102" opacity="1.000000" stroke="none" 
	d="
M530.135742,789.789612 
	C537.326233,789.948608 544.787109,790.351746 552.617065,790.920654 
	C545.459534,790.735535 537.932861,790.384644 530.135742,789.789612 
z"/>
<path fill="#85020C" opacity="1.000000" stroke="none" 
	d="
M487.145752,360.516571 
	C484.386627,353.522339 481.673462,346.135254 479.006958,338.359680 
	C481.766296,345.355408 484.479004,352.739532 487.145752,360.516571 
z"/>
<path fill="#4A0102" opacity="1.000000" stroke="none" 
	d="
M501.439453,788.023071 
	C507.236389,788.076294 513.239685,788.447754 519.612427,788.992920 
	C513.869873,788.891541 507.757874,788.616455 501.439453,788.023071 
z"/>
<path fill="#4A0102" opacity="1.000000" stroke="none" 
	d="
M469.088806,698.251648 
	C471.692719,704.674316 474.255157,711.491638 476.781067,718.686462 
	C474.178772,712.258118 471.613037,705.452148 469.088806,698.251648 
z"/>
<path fill="#4A0102" opacity="1.000000" stroke="none" 
	d="
M493.134857,766.177002 
	C495.634094,772.328552 498.079041,778.878662 500.496887,785.804382 
	C498.006714,779.645203 495.543671,773.110291 493.134857,766.177002 
z"/>
<path fill="#4A0102" opacity="1.000000" stroke="none" 
	d="
M559.132324,791.741638 
	C564.667419,791.873169 570.468445,792.256775 576.624023,792.808716 
	C571.118530,792.649231 565.258423,792.321472 559.132324,791.741638 
z"/>
<path fill="#4A0102" opacity="1.000000" stroke="none" 
	d="
M583.112549,793.706238 
	C587.999512,793.866638 593.139221,794.289856 598.629639,794.895264 
	C593.775330,794.708008 588.570251,794.338562 583.112549,793.706238 
z"/>
<path fill="#4A0102" opacity="1.000000" stroke="none" 
	d="
M487.112762,749.232910 
	C489.022369,753.676758 490.893066,758.516479 492.730621,763.735840 
	C490.822968,759.286560 488.948395,754.457703 487.112762,749.232910 
z"/>
<path fill="#85020C" opacity="1.000000" stroke="none" 
	d="
M441.169189,230.513779 
	C439.184814,225.764877 437.245880,220.622025 435.331238,215.090591 
	C437.308533,219.841278 439.261597,224.980545 441.169189,230.513779 
z"/>
<path fill="#85020C" opacity="1.000000" stroke="none" 
	d="
M469.137024,309.530823 
	C467.141846,304.792023 465.187561,299.658813 463.272461,294.139832 
	C465.267090,298.881500 467.222473,304.008972 469.137024,309.530823 
z"/>
<path fill="#85020C" opacity="1.000000" stroke="none" 
	d="
M502.586151,403.840271 
	C500.694763,399.396362 498.832550,394.571442 497.012329,389.358154 
	C498.907959,393.799622 500.761627,398.629395 502.586151,403.840271 
z"/>
<path fill="#4A0102" opacity="1.000000" stroke="none" 
	d="
M417.080505,551.267334 
	C418.993927,555.701294 420.864960,560.528381 422.721802,565.733276 
	C420.817780,561.294189 418.927917,556.477295 417.080505,551.267334 
z"/>
<path fill="#4A0102" opacity="1.000000" stroke="none" 
	d="
M481.088776,732.263794 
	C483.005371,736.696411 484.878540,741.522156 486.732727,746.725037 
	C484.824280,742.287109 482.934814,737.471985 481.088776,732.263794 
z"/>
<path fill="#4A0102" opacity="1.000000" stroke="none" 
	d="
M602.204041,795.547241 
	C603.611267,795.284729 605.292908,795.267395 607.714050,795.416870 
	C609.632874,795.684021 610.812134,795.784546 611.991394,795.885010 
	C613.131775,796.109436 614.272217,796.333801 615.711975,796.735107 
	C611.500366,796.538879 606.989380,796.165710 602.204041,795.547241 
z"/>
<path fill="#86030D" opacity="1.000000" stroke="none" 
	d="
M354.337799,790.607544 
	C357.003784,790.136169 360.103790,789.779541 363.551605,789.580688 
	C360.856903,790.066406 357.814331,790.394348 354.337799,790.607544 
z"/>
<path fill="#86030D" opacity="1.000000" stroke="none" 
	d="
M338.364929,791.521729 
	C341.044434,791.108337 344.148041,790.826599 347.603821,790.705261 
	C344.900391,791.128235 341.844696,791.390808 338.364929,791.521729 
z"/>
<path fill="#86030D" opacity="1.000000" stroke="none" 
	d="
M372.311981,789.350525 
	C374.720093,788.987122 377.486389,788.755432 380.600616,788.683594 
	C378.189087,789.056335 375.429626,789.269287 372.311981,789.350525 
z"/>
<path fill="#85020C" opacity="1.000000" stroke="none" 
	d="
M435.150146,213.522186 
	C433.694397,210.224854 432.277527,206.535400 430.906921,202.453934 
	C432.365112,205.751297 433.777069,209.440674 435.150146,213.522186 
z"/>
<path fill="#4A0102" opacity="1.000000" stroke="none" 
	d="
M425.191162,574.144531 
	C426.408203,576.628967 427.577148,579.509277 428.702057,582.762329 
	C427.486359,580.270142 426.314697,577.405212 425.191162,574.144531 
z"/>
<path fill="#4A0102" opacity="1.000000" stroke="none" 
	d="
M413.158630,540.149902 
	C414.465668,542.919739 415.723724,546.083984 416.945099,549.632812 
	C415.642151,546.859680 414.375916,543.702026 413.158630,540.149902 
z"/>
<path fill="#86030D" opacity="1.000000" stroke="none" 
	d="
M259.359924,797.345703 
	C261.719818,797.501709 264.013916,798.017334 266.630585,798.688843 
	C264.294189,799.177185 261.307037,801.715698 259.359924,797.345703 
z"/>
<path fill="#9D040E" opacity="1.000000" stroke="none" 
	d="
M388.392090,788.611328 
	C390.242706,787.113403 392.508972,785.731140 395.067291,784.134033 
	C395.454987,784.675964 395.550598,785.432678 395.291748,786.671143 
	C394.322357,787.583008 393.707489,788.013184 393.092621,788.443359 
	C391.664337,788.537842 390.236023,788.632385 388.392090,788.611328 
z"/>
<path fill="#85020C" opacity="1.000000" stroke="none" 
	d="
M492.686279,375.766052 
	C491.387909,373.025940 490.140106,369.912262 488.945557,366.411377 
	C490.244812,369.146942 491.490814,372.269745 492.686279,375.766052 
z"/>
<path fill="#4A0102" opacity="1.000000" stroke="none" 
	d="
M453.115723,653.216309 
	C454.341431,655.682556 455.518707,658.536804 456.673401,661.761414 
	C455.456299,659.289246 454.261780,656.446777 453.115723,653.216309 
z"/>
<path fill="#4A0102" opacity="1.000000" stroke="none" 
	d="
M407.132721,523.191162 
	C408.345276,525.668945 409.513977,528.536377 410.647980,531.774902 
	C409.438477,529.291016 408.263672,526.435852 407.132721,523.191162 
z"/>
<path fill="#85020C" opacity="1.000000" stroke="none" 
	d="
M496.550568,386.864075 
	C495.460602,384.640991 494.394806,382.047211 493.367371,379.078979 
	C494.462036,381.300873 495.518402,383.897156 496.550568,386.864075 
z"/>
<path fill="#85020C" opacity="1.000000" stroke="none" 
	d="
M450.608276,256.838806 
	C449.507629,254.618393 448.420837,252.027390 447.378845,249.060577 
	C448.489746,251.279251 449.555939,253.873703 450.608276,256.838806 
z"/>
<path fill="#85020C" opacity="1.000000" stroke="none" 
	d="
M472.523712,318.877930 
	C471.406799,316.661194 470.326355,314.074127 469.279480,311.111877 
	C470.395386,313.326965 471.477783,315.917267 472.523712,318.877930 
z"/>
<path fill="#85020C" opacity="1.000000" stroke="none" 
	d="
M479.092041,337.570801 
	C477.888702,335.088409 476.728394,332.224060 475.624878,328.993988 
	C476.832825,331.481812 477.983948,334.335358 479.092041,337.570801 
z"/>
<path fill="#86030D" opacity="1.000000" stroke="none" 
	d="
M306.471985,794.548767 
	C308.167389,794.111816 310.243134,793.799927 312.613892,793.635376 
	C310.890076,794.079651 308.871155,794.376709 306.471985,794.548767 
z"/>
<path fill="#86030D" opacity="1.000000" stroke="none" 
	d="
M328.284332,792.578613 
	C329.709534,792.158203 331.518707,791.834045 333.624268,791.666138 
	C332.169861,792.106567 330.419098,792.390747 328.284332,792.578613 
z"/>
<path fill="#4A0102" opacity="1.000000" stroke="none" 
	d="
M505.284973,405.825684 
	C505.321686,407.086639 505.063293,408.427673 504.508453,409.821899 
	C504.212036,409.875122 504.171204,409.854156 504.165955,409.475433 
	C504.047607,408.157043 503.934509,407.217377 503.821411,406.277710 
	C504.210876,406.153717 504.600342,406.029724 505.284973,405.825684 
z"/>
<path fill="#86030D" opacity="1.000000" stroke="none" 
	d="
M288.396545,796.557617 
	C289.779205,796.110596 291.539581,795.749512 293.586060,795.526123 
	C292.172852,795.990356 290.473541,796.316956 288.396545,796.557617 
z"/>
<path fill="#86030D" opacity="1.000000" stroke="none" 
	d="
M271.264771,798.519775 
	C272.389496,798.101562 273.876709,797.789978 275.639893,797.622925 
	C274.486328,798.053711 273.056793,798.340088 271.264771,798.519775 
z"/>
<path fill="#86030D" opacity="1.000000" stroke="none" 
	d="
M317.281189,793.369995 
	C318.729156,793.036072 320.550293,792.801880 322.672485,792.712219 
	C321.200500,793.061035 319.427399,793.265381 317.281189,793.369995 
z"/>
<path fill="#4A0102" opacity="1.000000" stroke="none" 
	d="
M404.378296,514.980347 
	C405.238037,516.529236 406.028473,518.455139 406.791656,520.734863 
	C405.945923,519.178284 405.127441,517.267822 404.378296,514.980347 
z"/>
<path fill="#85020C" opacity="1.000000" stroke="none" 
	d="
M444.865662,240.732269 
	C444.171600,239.634964 443.525085,238.190506 442.937500,236.396790 
	C443.635315,237.493408 444.274261,238.939270 444.865662,240.732269 
z"/>
<path fill="#85020C" opacity="1.000000" stroke="none" 
	d="
M426.841431,189.744537 
	C426.149628,188.646103 425.505035,187.201141 424.918762,185.406570 
	C425.614288,186.503983 426.251465,187.951004 426.841431,189.744537 
z"/>
<path fill="#4A0102" opacity="1.000000" stroke="none" 
	d="
M457.060883,664.201538 
	C457.693848,665.046021 458.262512,666.237549 458.784302,667.764160 
	C458.157104,666.915710 457.576843,665.732178 457.060883,664.201538 
z"/>
<path fill="#4A0102" opacity="1.000000" stroke="none" 
	d="
M448.967804,641.343994 
	C449.673431,642.433777 450.326477,643.878601 450.940125,645.670410 
	C450.238861,644.577881 449.577057,643.138428 448.967804,641.343994 
z"/>
<path fill="#4A0102" opacity="1.000000" stroke="none" 
	d="
M639.009888,799.768250 
	C639.346924,799.409973 639.838501,799.262207 640.930542,799.078613 
	C641.531128,799.042786 641.986023,798.989624 642.087402,799.075317 
	C642.188782,799.160950 642.392700,799.330933 642.392700,799.330933 
	C641.316589,799.546936 640.240417,799.762878 639.009888,799.768250 
z"/>
<path fill="#4A0102" opacity="1.000000" stroke="none" 
	d="
M447.107605,636.148193 
	C447.739777,636.999695 448.312256,638.191406 448.828369,639.718262 
	C448.197296,638.865051 447.622589,637.676697 447.107605,636.148193 
z"/>
<path fill="#4A0102" opacity="1.000000" stroke="none" 
	d="
M411.087372,534.166626 
	C411.713623,535.014893 412.280701,536.203735 412.800232,537.726074 
	C412.177856,536.875488 411.603058,535.691345 411.087372,534.166626 
z"/>
<path fill="#85020C" opacity="1.000000" stroke="none" 
	d="
M446.690491,245.803757 
	C446.067932,244.963882 445.507690,243.793869 445.007629,242.291656 
	C445.629486,243.130844 446.191132,244.302216 446.690491,245.803757 
z"/>
<path fill="#4A0102" opacity="1.000000" stroke="none" 
	d="
M477.153076,721.108032 
	C477.774658,721.961792 478.348663,723.160217 478.879669,724.697998 
	C478.259613,723.842407 477.682556,722.647583 477.153076,721.108032 
z"/>
<path fill="#4A0102" opacity="1.000000" stroke="none" 
	d="
M479.226868,727.009033 
	C479.770203,727.609802 480.262329,728.539795 480.712280,729.793823 
	C480.171967,729.191345 479.673828,728.264771 479.226868,727.009033 
z"/>
<path fill="#4A0102" opacity="1.000000" stroke="none" 
	d="
M451.057434,647.188171 
	C451.557037,647.770508 452.001373,648.662109 452.397980,649.855896 
	C451.900879,649.271179 451.451538,648.384338 451.057434,647.188171 
z"/>
<path fill="#4A0102" opacity="1.000000" stroke="none" 
	d="
M423.091156,568.144409 
	C423.602081,568.735229 424.051971,569.643250 424.470398,570.861633 
	C423.969330,570.268494 423.499695,569.365051 423.091156,568.144409 
z"/>
<path fill="#86030D" opacity="1.000000" stroke="none" 
	d="
M299.225769,795.188965 
	C299.822815,794.939270 300.661133,794.782532 301.739929,794.745483 
	C301.142670,795.004089 300.304871,795.143005 299.225769,795.188965 
z"/>
<path fill="#85020C" opacity="1.000000" stroke="none" 
	d="
M488.777985,364.793274 
	C488.243286,364.196503 487.755157,363.277710 487.310242,362.039673 
	C487.843781,362.637360 488.334167,363.554321 488.777985,364.793274 
z"/>
<path fill="#86030D" opacity="1.000000" stroke="none" 
	d="
M393.337341,788.527405 
	C393.707489,788.013184 394.322357,787.583008 395.200317,787.045776 
	C394.836304,787.496338 394.209167,788.053894 393.337341,788.527405 
z"/>
<path fill="#85020C" opacity="1.000000" stroke="none" 
	d="
M442.782135,234.779312 
	C442.246735,234.181412 441.756226,233.262878 441.316650,232.023621 
	C441.854034,232.621506 442.340546,233.540085 442.782135,234.779312 
z"/>
<path fill="#86030D" opacity="1.000000" stroke="none" 
	d="
M281.180664,797.174927 
	C281.519409,796.958801 282.052490,796.829590 282.777496,796.803711 
	C282.437958,797.025269 281.906494,797.143555 281.180664,797.174927 
z"/>
<path fill="#86030D" opacity="1.000000" stroke="none" 
	d="
M397.394257,495.073730 
	C397.829041,495.432220 398.223480,496.083069 398.558624,497.027679 
	C398.117523,496.669647 397.735687,496.017853 397.394257,495.073730 
z"/>
<path fill="#4A0102" opacity="1.000000" stroke="none" 
	d="
M622.968872,797.774719 
	C623.421997,797.562317 623.984253,797.531616 624.767639,797.694153 
	C624.351807,797.910400 623.714966,797.933411 622.968872,797.774719 
z"/>
<path fill="#4A0102" opacity="1.000000" stroke="none" 
	d="
M641.098389,794.228638 
	C641.251404,793.799072 641.523132,793.571655 642.005066,793.181030 
	C642.234619,793.580627 642.253845,794.143433 642.104004,794.853027 
	C641.613953,794.913330 641.374634,794.723572 641.098389,794.228638 
z"/>
<path fill="#85020C" opacity="1.000000" stroke="none" 
	d="
M474.663788,324.907349 
	C474.209534,324.545746 473.807312,323.884796 473.458496,322.925323 
	C473.913208,323.287201 474.314514,323.947632 474.663788,324.907349 
z"/>
<path fill="#85020C" opacity="1.000000" stroke="none" 
	d="
M503.641296,406.170288 
	C503.934509,407.217377 504.047607,408.157043 504.167358,409.452576 
	C503.763367,408.754089 503.352722,407.699799 502.998627,406.301514 
	C503.055176,405.957550 503.461151,406.062897 503.641296,406.170288 
z"/>
<path fill="#85020C" opacity="1.000000" stroke="none" 
	d="
M462.624359,290.923615 
	C462.177643,290.559937 461.790863,289.897034 461.437622,288.937134 
	C461.875519,289.301514 462.279938,289.962952 462.624359,290.923615 
z"/>
<path fill="#85020C" opacity="1.000000" stroke="none" 
	d="
M430.463196,199.978577 
	C430.030975,199.615845 429.644318,198.959351 429.309631,198.009338 
	C429.743958,198.372147 430.126343,199.028488 430.463196,199.978577 
z"/>
<path fill="#AF060F" opacity="1.000000" stroke="none" 
	d="
M398.386597,109.856026 
	C397.973389,109.501366 397.596771,108.856888 397.246613,107.923843 
	C397.656403,108.278931 398.039795,108.922569 398.386597,109.856026 
z"/>
<path fill="#4A0102" opacity="1.000000" stroke="none" 
	d="
M628.246948,798.566895 
	C628.119141,798.249084 628.278809,798.127563 629.033997,798.004700 
	C630.075745,798.010681 630.521912,798.017944 630.968140,798.025208 
	C630.968140,798.025208 631.180786,798.381714 631.222168,798.585083 
	C630.353760,798.780029 629.444031,798.771667 628.246948,798.566895 
z"/>
<path fill="#AF060F" opacity="1.000000" stroke="none" 
	d="
M397.113586,106.648529 
	C396.801086,106.405800 396.534821,105.835434 396.273376,104.945251 
	C396.572113,105.190590 396.865967,105.755737 397.113586,106.648529 
z"/>
<path fill="#AF060F" opacity="1.000000" stroke="none" 
	d="
M399.299927,112.942848 
	C399.081116,112.850761 398.918030,112.551620 398.843689,112.137848 
	C399.200256,112.185478 399.341309,112.423012 399.299927,112.942848 
z"/>
<path fill="#AF060F" opacity="1.000000" stroke="none" 
	d="
M400.538666,115.907364 
	C400.283905,115.838417 400.071686,115.544617 399.947144,115.123337 
	C400.352264,115.117096 400.534363,115.345978 400.538666,115.907364 
z"/>
<path fill="#4A0102" opacity="1.000000" stroke="none" 
	d="
M640.810242,103.277084 
	C640.510254,103.410126 639.954956,103.425926 639.142456,103.321518 
	C639.441833,103.187492 639.998352,103.173668 640.810242,103.277084 
z"/>
<path fill="#86030D" opacity="1.000000" stroke="none" 
	d="
M403.153595,511.211945 
	C403.489990,511.414154 403.771118,511.912323 404.018280,512.704102 
	C403.688995,512.501038 403.393646,512.004517 403.153595,511.211945 
z"/>
<path fill="#86030D" opacity="1.000000" stroke="none" 
	d="
M399.610840,501.028168 
	C399.937103,500.925323 400.108002,501.127716 400.134552,501.632263 
	C399.802490,501.747711 399.624298,501.547394 399.610840,501.028168 
z"/>
<path fill="#4A0102" opacity="1.000000" stroke="none" 
	d="
M505.309723,105.074936 
	C505.527191,105.157341 505.549835,105.453171 505.369995,105.961517 
	C505.162567,105.876244 505.145020,105.581017 505.309723,105.074936 
z"/>
<path fill="#85020C" opacity="1.000000" stroke="none" 
	d="
M428.648010,194.903214 
	C428.293152,194.973541 428.116730,194.711700 428.098969,194.121201 
	C428.319092,194.138397 428.508728,194.397903 428.648010,194.903214 
z"/>
<path fill="#86030D" opacity="1.000000" stroke="none" 
	d="
M401.387634,506.091370 
	C401.734558,506.018738 401.909546,506.272247 401.934998,506.847839 
	C401.577789,506.940826 401.387848,506.690002 401.387634,506.091370 
z"/>
<path fill="#4A0102" opacity="1.000000" stroke="none" 
	d="
M508.935242,103.172867 
	C508.892273,103.395393 508.608154,103.468407 508.083618,103.380066 
	C508.132568,103.166916 508.416199,103.101799 508.935242,103.172867 
z"/>
<path fill="#4A0102" opacity="1.000000" stroke="none" 
	d="
M642.085388,797.997559 
	C642.319580,798.368835 642.422363,798.683044 642.458984,799.164062 
	C642.392700,799.330933 642.188782,799.160950 642.041748,798.837402 
	C641.894775,798.513794 641.698792,798.070679 641.698792,798.070679 
	C641.698792,798.070679 641.953979,797.940491 642.085388,797.997559 
z"/>
<path fill="#B0060F" opacity="1.000000" stroke="none" 
	d="
M637.187134,785.270996 
	C637.839111,786.123962 638.535278,787.299255 639.083130,788.751648 
	C638.367065,787.883545 637.799194,786.738403 637.187134,785.270996 
z"/>
<path fill="#B0060F" opacity="1.000000" stroke="none" 
	d="
M611.674438,795.719238 
	C610.812134,795.784546 609.632874,795.684021 608.136658,795.412964 
	C608.998962,795.346130 610.178284,795.449829 611.674438,795.719238 
z"/>
<path fill="#AF060F" opacity="1.000000" stroke="none" 
	d="
M260.901276,107.628212 
	C260.793610,106.891342 260.720551,105.776794 260.840851,104.460098 
	C261.001434,105.255486 260.968658,106.253006 260.901276,107.628212 
z"/>
<path fill="#B0060F" opacity="1.000000" stroke="none" 
	d="
M630.800964,797.889465 
	C630.521912,798.017944 630.075745,798.010681 629.312744,797.891235 
	C629.541870,797.770569 630.087830,797.762146 630.800964,797.889465 
z"/>
<path fill="#9D040E" opacity="1.000000" stroke="none" 
	d="
M266.398438,124.698593 
	C266.222382,124.775414 266.076965,124.494667 266.074463,123.985497 
	C266.161285,124.013885 266.231903,124.208542 266.398438,124.698593 
z"/>
<path fill="#9D0610" opacity="1.000000" stroke="none" 
	d="
M641.552979,798.181946 
	C641.698792,798.070679 641.894775,798.513794 641.940430,798.751709 
	C641.986023,798.989624 641.531128,799.042786 641.308472,798.994507 
	C641.131226,798.698181 641.238342,798.480530 641.552979,798.181946 
z"/>
</svg>